HIERARCHY
ROOT Hips
{
	OFFSET 0.000000 8.830580 0.000000
	CHANNELS 6 Xposition Yposition Zposition Zrotation Yrotation Xrotation 
	JOINT Spine
	{
		OFFSET 0.000000 0.010000 0.000000
		CHANNELS 3 Zrotation Yrotation Xrotation
		JOINT Spine1
		{
			OFFSET 0.000000 2.459130 0.000000
			CHANNELS 3 Zrotation Yrotation Xrotation
			JOINT Neck
			{
				OFFSET 0.000000 2.484630 0.000000
				CHANNELS 3 Zrotation Yrotation Xrotation
				JOINT Head_virtual
				{
					OFFSET 0.000000 0.000000 0.000000
					CHANNELS 3 Zrotation Yrotation Xrotation
					JOINT Head
					{
						OFFSET 0.000000 0.927525 0.000000
						CHANNELS 3 Zrotation Yrotation Xrotation
						End Site
						{
							OFFSET 0.000000 0.000000 0.000000
						}
					}
				}
				JOINT LeftUpArm_virtual
				{
					OFFSET 0.000000 0.000000 0.000000
					CHANNELS 3 Zrotation Yrotation Xrotation
					JOINT LeftUpArm
					{
						OFFSET 1.248820 0.000000 0.000000
						CHANNELS 3 Zrotation Yrotation Xrotation
						JOINT LeftForeArm
						{
							OFFSET 2.597580 0.000000 0.000000
							CHANNELS 3 Zrotation Yrotation Xrotation
							JOINT LeftHand
							{
								OFFSET 2.455420 0.000000 0.000000
								CHANNELS 3 Zrotation Yrotation Xrotation
								End Site
								{
									OFFSET 0.000000 0.000000 0.000000
								}
							}
						}
					}
				}
				JOINT RightUpArm_virtual
				{
					OFFSET -0.000000 -0.000000 -0.000000
					CHANNELS 3 Zrotation Yrotation Xrotation
					JOINT RightUpArm
					{
						OFFSET -1.248820 -0.000000 -0.000000
						CHANNELS 3 Zrotation Yrotation Xrotation
						JOINT RightForeArm
						{
							OFFSET -2.597580 -0.000000 -0.000000
							CHANNELS 3 Zrotation Yrotation Xrotation
							JOINT RightHand
							{
								OFFSET -2.455420 -0.000000 -0.000000
								CHANNELS 3 Zrotation Yrotation Xrotation
								End Site
								{
									OFFSET 0.000000 0.000000 0.000000
								}
							}
						}
					}
				}
			}
		}
	}
	JOINT LeftUpLeg
	{
		OFFSET 1.271939 0.000000 0.000000
		CHANNELS 3 Zrotation Yrotation Xrotation
		JOINT LeftLowLeg
		{
			OFFSET 0.000000 -4.342910 0.000000
			CHANNELS 3 Zrotation Yrotation Xrotation
			JOINT LeftFoot
			{
				OFFSET 0.000000 -4.487670 0.000000
				CHANNELS 3 Zrotation Yrotation Xrotation
				JOINT LeftToeBase
				{
					OFFSET 0.000000 0.000000 1.515070
					CHANNELS 3 Zrotation Yrotation Xrotation
					End Site
					{
						OFFSET 0.000000 0.000000 0.000000
					}
				}
			}
		}
	}
	JOINT RightUpLeg
	{
		OFFSET -1.271939 0.000000 0.000000
		CHANNELS 3 Zrotation Yrotation Xrotation
		JOINT RightLowLeg
		{
			OFFSET 0.000000 -4.342910 0.000000
			CHANNELS 3 Zrotation Yrotation Xrotation
			JOINT RightFoot
			{
				OFFSET 0.000000 -4.487670 0.000000
				CHANNELS 3 Zrotation Yrotation Xrotation
				JOINT RightToeBase
				{
					OFFSET 0.000000 0.000000 1.515070
					CHANNELS 3 Zrotation Yrotation Xrotation
					End Site
					{
						OFFSET 0.000000 0.000000 0.000000
					}
				}
			}
		}
	}
}
MOTION
Frames: 5
Frame Time: 0.041667
-14.730002 3.303065 40.959860 -161.718381 -39.517691 156.142674 19.945833 -0.332820 23.028210 -9.374749 -9.971827 -11.357915 0.000000 0.000000 0.000000 4.936765 2.444536 16.730663 -30.334779 -24.062356 -67.966188 -25.439800 -12.544400 17.200701 -53.132000 -62.169102 19.955994 -180.000000 -89.174599 180.000000 77.729897 -28.557501 15.849000 22.747601 -5.434560 -4.786240 -54.456699 25.000999 -43.539001 180.000000 80.756897 -180.000000 -0.256641 17.281099 25.762699 -4.033464 7.044601 -61.490180 0.000000 0.000000 156.048004 8.500243 26.079315 -28.894824 0.000000 0.000000 -45.975201 1.924197 -1.154916 -80.458196 0.000000 0.000000 124.696999 18.017424 4.220779 -24.725035 0.000000 0.000000 -17.120520 
-14.738413 3.299397 40.954677 -161.812976 -39.504972 156.329148 19.783886 -0.181995 22.722421 -9.419882 -9.838079 -11.307221 0.000000 0.000000 0.000000 5.263266 2.385491 17.138018 -30.208651 -23.531317 -67.875085 -25.542400 -12.873600 17.290400 -52.840500 -62.175701 19.851990 -180.000000 -89.661003 180.000000 77.785896 -28.621901 15.663400 22.745899 -5.460280 -4.520870 -54.109600 24.646400 -43.179993 -180.000000 80.479500 -180.000000 -0.285789 17.552200 25.929199 -3.883617 6.903455 -61.415089 0.000000 0.000000 156.123001 8.263216 25.294889 -29.047576 0.000000 0.000000 -46.146799 1.702733 -1.553918 -80.479223 0.000000 0.000000 124.627998 18.986746 6.420949 -23.723348 0.000000 0.000000 -17.400250 
-14.746003 3.295702 40.949932 -161.982957 -39.573203 156.567125 19.644561 -0.129403 22.476261 -9.593426 -9.787853 -11.330665 0.000000 0.000000 0.000000 5.469794 2.316701 17.334293 -30.095884 -23.205638 -67.795118 -25.565100 -13.021800 17.350599 -52.686600 -62.191399 19.889008 0.000000 -89.805901 0.000000 77.647697 -28.273399 15.747600 22.694599 -5.481980 -4.576590 -53.642899 24.633400 -42.639008 180.000000 80.237900 180.000000 -0.155342 17.533400 26.369400 -3.893852 6.834966 -61.383766 0.000000 0.000000 156.149994 8.154490 24.804165 -29.141996 0.000000 0.000000 -46.315599 1.398980 -1.849309 -80.543511 0.000000 0.000000 124.667999 19.996031 7.910141 -23.304325 0.000000 0.000000 -17.239320 
-14.755605 3.293132 40.944836 -162.164608 -39.698637 156.771592 19.622245 -0.345379 22.315027 -9.998849 -9.904337 -11.553813 0.000000 0.000000 0.000000 5.353560 2.648734 17.589850 -29.956188 -22.985967 -67.590103 -25.508600 -12.805600 17.390800 -52.497200 -62.224800 19.950012 0.000000 -89.059303 0.000000 77.143204 -28.156601 16.960400 22.703400 -5.290820 -4.618370 -53.203800 24.833200 -41.964996 -180.000000 80.096298 -180.000000 0.114101 17.355400 26.578400 -3.897210 6.696191 -61.288237 0.000000 0.000000 156.162994 8.113309 24.267909 -29.215084 0.000000 0.000000 -46.434601 1.192086 -2.301805 -80.593470 0.000000 0.000000 124.772003 19.613534 8.328462 -23.111530 0.000000 0.000000 -17.240030 
-14.766771 3.288370 40.941367 -162.409029 -39.811470 156.913636 19.492914 -0.264712 22.062548 -10.164796 -9.766349 -11.420691 0.000000 0.000000 0.000000 5.360948 2.528944 17.680023 -29.893000 -22.967559 -67.388038 -25.622900 -13.151100 17.494900 -52.281700 -62.129902 19.789001 0.000000 -88.273300 0.000000 77.162102 -27.674299 16.403999 22.614599 -5.417300 -4.738290 -52.944401 24.925301 -41.333008 180.000000 80.223297 180.000000 0.083880 17.375200 26.436001 -4.074635 6.587517 -61.126217 0.000000 0.000000 156.182999 7.955566 23.834794 -29.252919 0.000000 0.000000 -46.597601 0.987183 -2.771538 -80.603074 0.000000 0.000000 124.953003 19.419557 8.737545 -23.106008 0.000000 0.000000 -17.067300 
